<svg width="20" height="20" viewBox="0 0 20 20" fill="none" xmlns="http://www.w3.org/2000/svg">
<path d="M7.08317 9.1665V11.6665M12.9165 9.1665V11.6665M2.2915 10.4165H17.7082M2.2915 8.33317C2.2915 7.67013 2.5549 7.03424 3.02374 6.5654C3.49258 6.09656 4.12846 5.83317 4.7915 5.83317H15.2082C15.8712 5.83317 16.5071 6.09656 16.9759 6.5654C17.4448 7.03424 17.7082 7.67013 17.7082 8.33317V14.5832C17.7082 15.2462 17.4448 15.8821 16.9759 16.3509C16.5071 16.8198 15.8712 17.0832 15.2082 17.0832H4.7915C4.12846 17.0832 3.49258 16.8198 3.02374 16.3509C2.5549 15.8821 2.2915 15.2462 2.2915 14.5832V8.33317ZM6.6665 4.58317C6.6665 4.14114 6.8421 3.71722 7.15466 3.40466C7.46722 3.0921 7.89114 2.9165 8.33317 2.9165H11.6665C12.1085 2.9165 12.5325 3.0921 12.845 3.40466C13.1576 3.71722 13.3332 4.14114 13.3332 4.58317V5.83317H6.6665V4.58317Z" stroke="#4A6365" stroke-width="1.5" stroke-linecap="round" stroke-linejoin="round"/>
</svg>
