<svg width="32" height="32" viewBox="0 0 32 32" fill="none" xmlns="http://www.w3.org/2000/svg">
<path d="M9.8457 0.400391H22.1543C27.3709 0.400634 31.5994 4.62909 31.5996 9.8457V22.1543C31.5994 27.3709 27.3709 31.5994 22.1543 31.5996H9.8457C4.62909 31.5994 0.400634 27.3709 0.400391 22.1543V9.8457L0.412109 9.36035C0.656804 4.53005 4.53005 0.656804 9.36035 0.412109L9.8457 0.400391Z" fill="white"/>
<path d="M9.8457 0.400391H22.1543C27.3709 0.400634 31.5994 4.62909 31.5996 9.8457V22.1543C31.5994 27.3709 27.3709 31.5994 22.1543 31.5996H9.8457C4.62909 31.5994 0.400634 27.3709 0.400391 22.1543V9.8457L0.412109 9.36035C0.656804 4.53005 4.53005 0.656804 9.36035 0.412109L9.8457 0.400391Z" stroke="#4A6365" stroke-width="0.8"/>
<path d="M15.4329 20C15.4331 19.6872 15.6875 19.4336 16.0003 19.4336C16.313 19.4338 16.5665 19.6873 16.5667 20C16.5667 20.3129 16.3131 20.5672 16.0003 20.5674C15.6873 20.5674 15.4329 20.313 15.4329 20Z" stroke="#4A6365" stroke-width="1.2"/>
<path d="M17.1666 16.0003C17.1666 15.356 16.6443 14.8337 16 14.8337C15.3556 14.8337 14.8333 15.356 14.8333 16.0003C14.8333 16.6447 15.3556 17.167 16 17.167C16.6443 17.167 17.1666 16.6447 17.1666 16.0003Z" fill="#4A6365"/>
<path d="M17.1666 12.0003C17.1666 11.356 16.6443 10.8337 16 10.8337C15.3556 10.8337 14.8333 11.356 14.8333 12.0003C14.8333 12.6447 15.3556 13.167 16 13.167C16.6443 13.167 17.1666 12.6447 17.1666 12.0003Z" fill="#4A6365"/>
</svg>
