<svg width="32" height="32" viewBox="0 0 32 32" fill="none" xmlns="http://www.w3.org/2000/svg">
<path d="M12 0.5H20C26.3513 0.5 31.5 5.64873 31.5 12V20C31.5 26.3513 26.3513 31.5 20 31.5H12C5.64873 31.5 0.5 26.3513 0.5 20V12C0.5 5.64873 5.64873 0.5 12 0.5Z" fill="#EFF5F5"/>
<path d="M12 0.5H20C26.3513 0.5 31.5 5.64873 31.5 12V20C31.5 26.3513 26.3513 31.5 20 31.5H12C5.64873 31.5 0.5 26.3513 0.5 20V12C0.5 5.64873 5.64873 0.5 12 0.5Z" stroke="#1C7075"/>
<path d="M16 22.6671V9.43457C15.6687 9.43464 15.351 9.56622 15.1167 9.8004L10.375 14.5421M21.625 14.5421L16.8833 9.8004C16.6489 9.56653 16.3312 9.43525 16 9.4354" stroke="#00696E" stroke-linecap="round" stroke-linejoin="round"/>
</svg>
