<svg width="32" height="32" viewBox="0 0 32 32" fill="none" xmlns="http://www.w3.org/2000/svg">
<path d="M10.1055 0.400391H21.8945C27.2546 0.400391 31.5996 4.7454 31.5996 10.1055V21.8945C31.5996 27.2546 27.2546 31.5996 21.8945 31.5996H10.1055C4.7454 31.5996 0.400391 27.2546 0.400391 21.8945V10.1055C0.400391 4.7454 4.7454 0.400391 10.1055 0.400391Z" fill="white"/>
<path d="M10.1055 0.400391H21.8945C27.2546 0.400391 31.5996 4.7454 31.5996 10.1055V21.8945C31.5996 27.2546 27.2546 31.5996 21.8945 31.5996H10.1055C4.7454 31.5996 0.400391 27.2546 0.400391 21.8945V10.1055C0.400391 4.7454 4.7454 0.400391 10.1055 0.400391Z" stroke="#4A6365" stroke-width="0.8"/>
<path d="M18.1146 10.5C18.4165 10.5009 18.7152 10.5612 18.9937 10.6776C19.2721 10.794 19.525 10.9642 19.7376 11.1783C19.9503 11.3925 20.1187 11.6465 20.2331 11.9258C20.3476 12.2051 20.4059 12.5042 20.4046 12.806C20.4046 13.3053 20.2473 13.7673 19.9786 14.1453C19.7682 14.444 19.4889 14.6878 19.1645 14.856C18.8402 15.0242 18.4801 15.112 18.1146 15.112M20.416 16.8247C21.44 17.398 22.168 18.6667 22.1666 19.74V21.5M16.8813 12.806C16.8813 13.3053 16.7233 13.7673 16.4546 14.1453C16.2442 14.444 15.9649 14.6878 15.6405 14.856C15.3162 15.0242 14.9561 15.112 14.5906 15.112C13.3253 15.112 12.3 14.0787 12.3 12.8053C12.3 11.532 13.3253 10.5 14.5906 10.5C14.8925 10.5008 15.1913 10.5611 15.4699 10.6774C15.7484 10.7938 16.0013 10.9639 16.2141 11.1781C16.4268 11.3923 16.5953 11.6463 16.7097 11.9256C16.8242 12.205 16.8825 12.5041 16.8813 12.806ZM9.83331 20.0713C9.83331 18.2867 12.1966 16.8887 14.5906 16.8887C15.5453 16.8887 16.4953 17.1107 17.2926 17.4913C18.4946 18.0647 19.3486 18.998 19.3473 20.0713V20.8333C19.3473 21.0101 19.2771 21.1797 19.1521 21.3047C19.027 21.4298 18.8575 21.5 18.6806 21.5H10.5C10.3232 21.5 10.1536 21.4298 10.0286 21.3047C9.90355 21.1797 9.83331 21.0101 9.83331 20.8333V20.0713Z" stroke="#4A6365" stroke-width="1.2" stroke-linecap="round" stroke-linejoin="round"/>
</svg>
