<svg width="20" height="20" viewBox="0 0 20 20" fill="none" xmlns="http://www.w3.org/2000/svg">
<path d="M19.7503 10.8115C19.5909 12.664 18.9058 14.4324 17.7756 15.9087C16.6453 17.3851 15.1169 18.5079 13.3702 19.1451C11.6234 19.7823 9.73107 19.9074 7.91568 19.5056C6.10029 19.1038 4.43741 18.1919 3.12268 16.8772C1.80794 15.5625 0.89605 13.8996 0.494283 12.0842C0.0925168 10.2688 0.217591 8.37643 0.854791 6.62971C1.49199 4.88299 2.61481 3.35459 4.09114 2.22433C5.56748 1.09407 7.33591 0.408961 9.18839 0.249618C9.28688 0.241493 9.38601 0.252846 9.48011 0.28303C9.57421 0.313214 9.66145 0.361638 9.73684 0.425536C9.81223 0.489434 9.8743 0.567556 9.91949 0.655441C9.96469 0.743325 9.99214 0.839252 10.0003 0.937743C10.0084 1.03623 9.99703 1.13536 9.96685 1.22947C9.93667 1.32357 9.88824 1.41081 9.82434 1.4862C9.76045 1.56159 9.68232 1.62365 9.59444 1.66885C9.50655 1.71405 9.41063 1.74149 9.31214 1.74962C7.74425 1.88433 6.24745 2.46406 4.99786 3.42058C3.74827 4.37711 2.79788 5.67064 2.2585 7.14899C1.71913 8.62733 1.61321 10.229 1.95322 11.7655C2.29322 13.302 3.065 14.7094 4.17775 15.8221C5.2905 16.9349 6.69792 17.7067 8.23442 18.0467C9.77091 18.3867 11.3726 18.2808 12.8509 17.7414C14.3292 17.202 15.6228 16.2516 16.5793 15.002C17.5358 13.7524 18.1155 12.2556 18.2503 10.6877C18.2667 10.4888 18.3614 10.3046 18.5137 10.1755C18.6659 10.0465 18.8632 9.98321 19.0621 9.99962C19.261 10.016 19.4453 10.1108 19.5743 10.263C19.7034 10.4153 19.7667 10.6126 19.7503 10.8115ZM9.25026 4.74962V9.99962C9.25026 10.1985 9.32928 10.3893 9.46993 10.5299C9.61058 10.6706 9.80135 10.7496 10.0003 10.7496H15.2503C15.4492 10.7496 15.6399 10.6706 15.7806 10.5299C15.9212 10.3893 16.0003 10.1985 16.0003 9.99962C16.0003 9.80071 15.9212 9.60994 15.7806 9.46929C15.6399 9.32864 15.4492 9.24962 15.2503 9.24962H10.7503V4.74962C10.7503 4.55071 10.6712 4.35994 10.5306 4.21929C10.3899 4.07864 10.1992 3.99962 10.0003 3.99962C9.80135 3.99962 9.61058 4.07864 9.46993 4.21929C9.32928 4.35994 9.25026 4.55071 9.25026 4.74962ZM13.0003 2.49962C13.2228 2.49962 13.4403 2.43364 13.6253 2.31002C13.8103 2.18641 13.9545 2.0107 14.0396 1.80514C14.1248 1.59957 14.1471 1.37337 14.1036 1.15514C14.0602 0.936913 13.9531 0.736457 13.7958 0.579123C13.6384 0.421789 13.438 0.314643 13.2197 0.271235C13.0015 0.227827 12.7753 0.250105 12.5697 0.335254C12.3642 0.420403 12.1885 0.564597 12.0649 0.749602C11.9412 0.934607 11.8753 1.15211 11.8753 1.37462C11.8753 1.67299 11.9938 1.95914 12.2048 2.17011C12.4157 2.38109 12.7019 2.49962 13.0003 2.49962ZM16.3753 4.74962C16.5978 4.74962 16.8153 4.68364 17.0003 4.56002C17.1853 4.43641 17.3295 4.2607 17.4146 4.05514C17.4998 3.84957 17.5221 3.62337 17.4786 3.40514C17.4352 3.18691 17.3281 2.98646 17.1708 2.82912C17.0134 2.67179 16.813 2.56464 16.5947 2.52123C16.3765 2.47783 16.1503 2.50011 15.9447 2.58525C15.7392 2.6704 15.5635 2.8146 15.4399 2.9996C15.3162 3.18461 15.2503 3.40211 15.2503 3.62462C15.2503 3.92299 15.3688 4.20914 15.5798 4.42011C15.7907 4.63109 16.0769 4.74962 16.3753 4.74962ZM18.6253 8.12462C18.8478 8.12462 19.0653 8.05864 19.2503 7.93502C19.4353 7.81141 19.5795 7.6357 19.6646 7.43014C19.7498 7.22457 19.7721 6.99837 19.7286 6.78014C19.6852 6.56191 19.5781 6.36146 19.4208 6.20412C19.2634 6.04679 19.063 5.93964 18.8447 5.89623C18.6265 5.85283 18.4003 5.87511 18.1947 5.96025C17.9892 6.0454 17.8135 6.1896 17.6899 6.3746C17.5662 6.55961 17.5003 6.77711 17.5003 6.99962C17.5003 7.29799 17.6188 7.58414 17.8298 7.79511C18.0407 8.00609 18.3269 8.12462 18.6253 8.12462Z" fill="#0F1E1F"/>
</svg>
