<svg width="18" height="18" viewBox="0 0 18 18" fill="none" xmlns="http://www.w3.org/2000/svg">
<mask id="path-1-inside-1_5592_18637" fill="white">
<path d="M14.4603 13.6648C14.5126 13.7171 14.554 13.7792 14.5823 13.8474C14.6106 13.9157 14.6251 13.9889 14.6251 14.0628C14.6251 14.1367 14.6106 14.2099 14.5823 14.2782C14.554 14.3465 14.5126 14.4085 14.4603 14.4608C14.408 14.513 14.346 14.5545 14.2777 14.5828C14.2094 14.6111 14.1362 14.6256 14.0623 14.6256C13.9884 14.6256 13.9152 14.6111 13.8469 14.5828C13.7787 14.5545 13.7166 14.513 13.6644 14.4608L8.99982 9.79555L4.33529 14.4608C4.22975 14.5663 4.08659 14.6256 3.93732 14.6256C3.78806 14.6256 3.6449 14.5663 3.53936 14.4608C3.43381 14.3552 3.37451 14.2121 3.37451 14.0628C3.37451 13.9135 3.43381 13.7704 3.53936 13.6648L8.20459 9.00031L3.53936 4.33578C3.43381 4.23023 3.37451 4.08708 3.37451 3.93781C3.37451 3.78855 3.43381 3.64539 3.53936 3.53984C3.6449 3.4343 3.78806 3.375 3.93732 3.375C4.08659 3.375 4.22975 3.4343 4.33529 3.53984L8.99982 8.20508L13.6644 3.53984C13.7699 3.4343 13.9131 3.375 14.0623 3.375C14.2116 3.375 14.3547 3.4343 14.4603 3.53984C14.5658 3.64539 14.6251 3.78855 14.6251 3.93781C14.6251 4.08708 14.5658 4.23023 14.4603 4.33578L9.79506 9.00031L14.4603 13.6648Z"/>
</mask>
<path d="M14.4603 13.6648L15.5917 12.5335L15.5916 12.5334L14.4603 13.6648ZM14.0623 14.6256L14.0623 16.2256L14.0623 14.6256ZM13.6644 14.4608L12.5329 15.5921L12.533 15.5922L13.6644 14.4608ZM8.99982 9.79555L10.1313 8.66426L8.99982 7.53263L7.86837 8.66426L8.99982 9.79555ZM4.33529 14.4608L5.46666 15.5922L5.46675 15.5921L4.33529 14.4608ZM3.53936 13.6648L2.40807 12.5334L2.40798 12.5335L3.53936 13.6648ZM8.20459 9.00031L9.33588 10.1318L10.4675 9.00031L9.33588 7.86886L8.20459 9.00031ZM3.53936 4.33578L2.40798 5.46715L2.40807 5.46724L3.53936 4.33578ZM3.93732 3.375V1.775V3.375ZM4.33529 3.53984L5.46675 2.40856L5.46666 2.40847L4.33529 3.53984ZM8.99982 8.20508L7.86837 9.33636L8.99982 10.468L10.1313 9.33636L8.99982 8.20508ZM13.6644 3.53984L12.533 2.40847L12.5329 2.40856L13.6644 3.53984ZM14.4603 4.33578L15.5916 5.46724L15.5917 5.46715L14.4603 4.33578ZM9.79506 9.00031L8.66377 7.86886L7.53215 9.00031L8.66377 10.1318L9.79506 9.00031ZM14.4603 13.6648L13.3289 14.7962C13.2326 14.6999 13.1562 14.5856 13.1041 14.4597L14.5823 13.8474L16.0605 13.2351C15.9518 12.9727 15.7925 12.7343 15.5917 12.5335L14.4603 13.6648ZM14.5823 13.8474L13.1041 14.4597C13.052 14.3339 13.0251 14.199 13.0251 14.0628H14.6251H16.2251C16.2251 13.7788 16.1692 13.4975 16.0605 13.2351L14.5823 13.8474ZM14.6251 14.0628H13.0251C13.0251 13.9266 13.052 13.7917 13.1041 13.6659L14.5823 14.2782L16.0605 14.8905C16.1692 14.6281 16.2251 14.3468 16.2251 14.0628H14.6251ZM14.5823 14.2782L13.1041 13.6659C13.1562 13.5401 13.2326 13.4257 13.3289 13.3294L14.4603 14.4608L15.5917 15.5922C15.7925 15.3913 15.9518 15.1529 16.0605 14.8905L14.5823 14.2782ZM14.4603 14.4608L13.3289 13.3294C13.4252 13.2331 13.5396 13.1567 13.6654 13.1046L14.2777 14.5828L14.89 16.061C15.1524 15.9523 15.3908 15.793 15.5917 15.5922L14.4603 14.4608ZM14.2777 14.5828L13.6654 13.1046C13.7912 13.0525 13.9261 13.0256 14.0623 13.0256V14.6256L14.0623 16.2256C14.3464 16.2256 14.6276 16.1697 14.89 16.061L14.2777 14.5828ZM14.0623 14.6256L14.0623 13.0256C14.1985 13.0256 14.3334 13.0525 14.4592 13.1046L13.8469 14.5828L13.2347 16.061C13.497 16.1697 13.7783 16.2256 14.0623 16.2256V14.6256ZM13.8469 14.5828L14.4592 13.1046C14.5851 13.1567 14.6994 13.2331 14.7957 13.3294L13.6644 14.4608L12.533 15.5922C12.7338 15.793 12.9723 15.9523 13.2347 16.061L13.8469 14.5828ZM13.6644 14.4608L14.7958 13.3295L10.1313 8.66426L8.99982 9.79555L7.86837 10.9268L12.5329 15.5921L13.6644 14.4608ZM8.99982 9.79555L7.86837 8.66426L3.20384 13.3295L4.33529 14.4608L5.46675 15.5921L10.1313 10.9268L8.99982 9.79555ZM4.33529 14.4608L3.20392 13.3294C3.39843 13.1349 3.66224 13.0256 3.93732 13.0256L3.93732 14.6256L3.93732 16.2256C4.51094 16.2256 5.06106 15.9978 5.46666 15.5922L4.33529 14.4608ZM3.93732 14.6256L3.93732 13.0256C4.21241 13.0256 4.47622 13.1349 4.67073 13.3294L3.53936 14.4608L2.40798 15.5922C2.81359 15.9978 3.36371 16.2256 3.93732 16.2256L3.93732 14.6256ZM3.53936 14.4608L4.67073 13.3294C4.86524 13.5239 4.97451 13.7877 4.97451 14.0628H3.37451L1.77451 14.0628C1.77451 14.6364 2.00238 15.1865 2.40798 15.5922L3.53936 14.4608ZM3.37451 14.0628H4.97451C4.97451 14.3379 4.86524 14.6017 4.67073 14.7962L3.53936 13.6648L2.40798 12.5335C2.00238 12.9391 1.77451 13.4892 1.77451 14.0628L3.37451 14.0628ZM3.53936 13.6648L4.67064 14.7963L9.33588 10.1318L8.20459 9.00031L7.0733 7.86886L2.40807 12.5334L3.53936 13.6648ZM8.20459 9.00031L9.33588 7.86886L4.67064 3.20433L3.53936 4.33578L2.40807 5.46724L7.0733 10.1318L8.20459 9.00031ZM3.53936 4.33578L4.67073 3.20441C4.86524 3.39892 4.97451 3.66273 4.97451 3.93781H3.37451H1.77451C1.77451 4.51143 2.00238 5.06155 2.40798 5.46715L3.53936 4.33578ZM3.37451 3.93781H4.97451C4.97451 4.21289 4.86524 4.4767 4.67073 4.67121L3.53936 3.53984L2.40798 2.40847C2.00238 2.81408 1.77451 3.3642 1.77451 3.93781H3.37451ZM3.53936 3.53984L4.67073 4.67121C4.47622 4.86573 4.2124 4.975 3.93732 4.975V3.375V1.775C3.36371 1.775 2.81359 2.00287 2.40798 2.40847L3.53936 3.53984ZM3.93732 3.375V4.975C3.66225 4.975 3.39843 4.86573 3.20392 4.67121L4.33529 3.53984L5.46666 2.40847C5.06106 2.00287 4.51094 1.775 3.93732 1.775V3.375ZM4.33529 3.53984L3.20384 4.67113L7.86837 9.33636L8.99982 8.20508L10.1313 7.07379L5.46675 2.40856L4.33529 3.53984ZM8.99982 8.20508L10.1313 9.33636L14.7958 4.67113L13.6644 3.53984L12.5329 2.40856L7.86837 7.07379L8.99982 8.20508ZM13.6644 3.53984L14.7957 4.67121C14.6012 4.86573 14.3374 4.975 14.0623 4.975V3.375L14.0623 1.775C13.4887 1.775 12.9386 2.00287 12.533 2.40847L13.6644 3.53984ZM14.0623 3.375V4.975C13.7872 4.975 13.5234 4.86573 13.3289 4.67121L14.4603 3.53984L15.5917 2.40847C15.1861 2.00287 14.6359 1.775 14.0623 1.775L14.0623 3.375ZM14.4603 3.53984L13.3289 4.67121C13.1344 4.47671 13.0251 4.21289 13.0251 3.93781L14.6251 3.93781L16.2251 3.93781C16.2251 3.3642 15.9973 2.81408 15.5917 2.40847L14.4603 3.53984ZM14.6251 3.93781L13.0251 3.93781C13.0251 3.66273 13.1344 3.39892 13.3289 3.20441L14.4603 4.33578L15.5917 5.46715C15.9973 5.06155 16.2251 4.51143 16.2251 3.93781L14.6251 3.93781ZM14.4603 4.33578L13.329 3.20433L8.66377 7.86886L9.79506 9.00031L10.9263 10.1318L15.5916 5.46724L14.4603 4.33578ZM9.79506 9.00031L8.66377 10.1318L13.329 14.7963L14.4603 13.6648L15.5916 12.5334L10.9263 7.86886L9.79506 9.00031Z" fill="#00696E" mask="url(#path-1-inside-1_5592_18637)"/>
</svg>
