<svg width="20" height="20" viewBox="0 0 20 20" fill="none" xmlns="http://www.w3.org/2000/svg">
<path d="M15.6245 4.25C15.641 4.25 15.6574 4.25361 15.6724 4.25977L15.7134 4.28711C15.7367 4.31052 15.7504 4.34195 15.7505 4.375C15.7505 4.39147 15.7469 4.4079 15.7407 4.42285L15.7134 4.46387L10.5298 9.64648L10.1763 10L15.7134 15.5371C15.7249 15.5487 15.7344 15.5621 15.7407 15.5771C15.747 15.5923 15.7504 15.6087 15.7505 15.625C15.7505 15.6413 15.7469 15.6578 15.7407 15.6729L15.7134 15.7139C15.7017 15.7255 15.6876 15.7349 15.6724 15.7412C15.6573 15.7474 15.6408 15.751 15.6245 15.751C15.6082 15.7509 15.5918 15.7475 15.5767 15.7412L15.5366 15.7139L9.99951 10.1768L9.646 10.5303L4.46338 15.7139C4.43987 15.7374 4.40776 15.751 4.37451 15.751C4.35794 15.7509 4.34167 15.7475 4.32666 15.7412L4.28662 15.7139C4.26311 15.6904 4.24951 15.6582 4.24951 15.625C4.24956 15.6084 4.25301 15.5922 4.25928 15.5771L4.28662 15.5371L9.82373 10L9.47021 9.64648L4.28662 4.46387C4.26311 4.44036 4.24951 4.40824 4.24951 4.375C4.2496 4.34188 4.2632 4.31053 4.28662 4.28711C4.2983 4.27543 4.3117 4.266 4.32666 4.25977L4.37451 4.25C4.39102 4.25 4.40739 4.25361 4.42236 4.25977L4.46338 4.28711L9.646 9.4707L9.99951 9.82422L15.5366 4.28711C15.56 4.26368 15.5914 4.25009 15.6245 4.25Z" fill="white" stroke="white"/>
</svg>
