<svg width="32" height="32" viewBox="0 0 32 32" fill="none" xmlns="http://www.w3.org/2000/svg">
<path d="M9.8457 0.400391H22.1543C27.3709 0.400634 31.5994 4.62909 31.5996 9.8457V22.1543C31.5994 27.3709 27.3709 31.5994 22.1543 31.5996H9.8457C4.62909 31.5994 0.400634 27.3709 0.400391 22.1543V9.8457L0.412109 9.36035C0.656804 4.53005 4.53005 0.656804 9.36035 0.412109L9.8457 0.400391Z" fill="white"/>
<path d="M9.8457 0.400391H22.1543C27.3709 0.400634 31.5994 4.62909 31.5996 9.8457V22.1543C31.5994 27.3709 27.3709 31.5994 22.1543 31.5996H9.8457C4.62909 31.5994 0.400634 27.3709 0.400391 22.1543V9.8457L0.412109 9.36035C0.656804 4.53005 4.53005 0.656804 9.36035 0.412109L9.8457 0.400391Z" stroke="#4E0002" stroke-width="0.8"/>
<mask id="path-2-inside-1_4856_13586" fill="white">
<path d="M20.8537 20.146C20.9001 20.1925 20.937 20.2476 20.9621 20.3083C20.9873 20.369 21.0002 20.4341 21.0002 20.4998C21.0002 20.5655 20.9873 20.6305 20.9621 20.6912C20.937 20.7519 20.9001 20.8071 20.8537 20.8535C20.8072 20.9 20.7521 20.9368 20.6914 20.962C20.6307 20.9871 20.5656 21.0001 20.4999 21.0001C20.4342 21.0001 20.3692 20.9871 20.3085 20.962C20.2478 20.9368 20.1926 20.9 20.1462 20.8535L15.9999 16.7067L11.8537 20.8535C11.7598 20.9474 11.6326 21.0001 11.4999 21.0001C11.3672 21.0001 11.24 20.9474 11.1462 20.8535C11.0523 20.7597 10.9996 20.6325 10.9996 20.4998C10.9996 20.3671 11.0523 20.2399 11.1462 20.146L15.293 15.9998L11.1462 11.8535C11.0523 11.7597 10.9996 11.6325 10.9996 11.4998C10.9996 11.3671 11.0523 11.2399 11.1462 11.146C11.24 11.0522 11.3672 10.9995 11.4999 10.9995C11.6326 10.9995 11.7598 11.0522 11.8537 11.146L15.9999 15.2929L20.1462 11.146C20.24 11.0522 20.3672 10.9995 20.4999 10.9995C20.6326 10.9995 20.7598 11.0522 20.8537 11.146C20.9475 11.2399 21.0002 11.3671 21.0002 11.4998C21.0002 11.6325 20.9475 11.7597 20.8537 11.8535L16.7068 15.9998L20.8537 20.146Z"/>
</mask>
<path d="M20.8537 20.146L21.7022 19.2975L21.7021 19.2974L20.8537 20.146ZM20.4999 21.0001V22.2001V21.0001ZM20.1462 20.8535L19.2976 21.702L19.2976 21.7021L20.1462 20.8535ZM15.9999 16.7067L16.8485 15.8582L15.9999 15.0095L15.1513 15.8582L15.9999 16.7067ZM11.8537 20.8535L12.7022 21.7021L12.7023 21.702L11.8537 20.8535ZM11.1462 20.146L10.2977 19.2974L10.2976 19.2975L11.1462 20.146ZM15.293 15.9998L16.1415 16.8484L16.9902 15.9998L16.1415 15.1512L15.293 15.9998ZM11.1462 11.8535L10.2976 12.7021L10.2977 12.7021L11.1462 11.8535ZM11.4999 10.9995V9.79951V10.9995ZM11.8537 11.146L12.7023 10.2976L12.7022 10.2975L11.8537 11.146ZM15.9999 15.2929L15.1513 16.1414L15.9999 16.9901L16.8485 16.1414L15.9999 15.2929ZM20.1462 11.146L19.2976 10.2975L19.2976 10.2976L20.1462 11.146ZM20.8537 11.8535L21.7021 12.7021L21.7022 12.7021L20.8537 11.8535ZM16.7068 15.9998L15.8583 15.1512L15.0096 15.9998L15.8583 16.8484L16.7068 15.9998ZM20.8537 20.146L20.0051 20.9946C19.9402 20.9296 19.8886 20.8525 19.8535 20.7676L20.9621 20.3083L22.0708 19.8491C21.9853 19.6428 21.8601 19.4554 21.7022 19.2975L20.8537 20.146ZM20.9621 20.3083L19.8535 20.7676C19.8183 20.6827 19.8002 20.5917 19.8002 20.4998H21.0002H22.2002C22.2002 20.2765 22.1562 20.0554 22.0708 19.8491L20.9621 20.3083ZM21.0002 20.4998H19.8002C19.8002 20.4079 19.8183 20.3169 19.8535 20.232L20.9621 20.6912L22.0708 21.1505C22.1562 20.9442 22.2002 20.7231 22.2002 20.4998H21.0002ZM20.9621 20.6912L19.8535 20.232C19.8886 20.1471 19.9402 20.07 20.0051 20.005L20.8537 20.8535L21.7022 21.7021C21.8601 21.5442 21.9853 21.3567 22.0708 21.1505L20.9621 20.6912ZM20.8537 20.8535L20.0051 20.005C20.0701 19.94 20.1473 19.8885 20.2321 19.8533L20.6914 20.962L21.1506 22.0706C21.3569 21.9852 21.5443 21.86 21.7022 21.7021L20.8537 20.8535ZM20.6914 20.962L20.2321 19.8533C20.317 19.8182 20.408 19.8001 20.4999 19.8001V21.0001V22.2001C20.7232 22.2001 20.9443 22.1561 21.1506 22.0706L20.6914 20.962ZM20.4999 21.0001V19.8001C20.5918 19.8001 20.6828 19.8182 20.7677 19.8533L20.3085 20.962L19.8492 22.0706C20.0555 22.1561 20.2766 22.2001 20.4999 22.2001V21.0001ZM20.3085 20.962L20.7677 19.8533C20.8526 19.8885 20.9297 19.94 20.9947 20.005L20.1462 20.8535L19.2976 21.7021C19.4555 21.86 19.643 21.9852 19.8492 22.0706L20.3085 20.962ZM20.1462 20.8535L20.9948 20.0051L16.8485 15.8582L15.9999 16.7067L15.1513 17.5551L19.2976 21.702L20.1462 20.8535ZM15.9999 16.7067L15.1513 15.8582L11.0051 20.0051L11.8537 20.8535L12.7023 21.702L16.8485 17.5551L15.9999 16.7067ZM11.8537 20.8535L11.0051 20.005C11.1364 19.8738 11.3143 19.8001 11.4999 19.8001V21.0001V22.2001C11.9509 22.2001 12.3833 22.0209 12.7022 21.7021L11.8537 20.8535ZM11.4999 21.0001V19.8001C11.6855 19.8001 11.8635 19.8738 11.9947 20.005L11.1462 20.8535L10.2976 21.7021C10.6165 22.0209 11.049 22.2001 11.4999 22.2001V21.0001ZM11.1462 20.8535L11.9947 20.005C12.1259 20.1362 12.1996 20.3142 12.1996 20.4998H10.9996H9.79963C9.79963 20.9507 9.97877 21.3832 10.2976 21.7021L11.1462 20.8535ZM10.9996 20.4998H12.1996C12.1996 20.6854 12.1259 20.8633 11.9947 20.9946L11.1462 20.146L10.2976 19.2975C9.97877 19.6164 9.79963 20.0488 9.79963 20.4998H10.9996ZM11.1462 20.146L11.9946 20.9946L16.1415 16.8484L15.293 15.9998L14.4446 15.1512L10.2977 19.2974L11.1462 20.146ZM15.293 15.9998L16.1415 15.1512L11.9946 11.0049L11.1462 11.8535L10.2977 12.7021L14.4446 16.8484L15.293 15.9998ZM11.1462 11.8535L11.9947 11.005C12.1259 11.1362 12.1996 11.3142 12.1996 11.4998H10.9996H9.79963C9.79963 11.9507 9.97877 12.3832 10.2976 12.7021L11.1462 11.8535ZM10.9996 11.4998H12.1996C12.1996 11.6854 12.1259 11.8633 11.9947 11.9946L11.1462 11.146L10.2976 10.2975C9.97877 10.6164 9.79963 11.0488 9.79963 11.4998H10.9996ZM11.1462 11.146L11.9947 11.9946C11.8635 12.1258 11.6855 12.1995 11.4999 12.1995V10.9995V9.79951C11.049 9.79951 10.6165 9.97865 10.2976 10.2975L11.1462 11.146ZM11.4999 10.9995V12.1995C11.3143 12.1995 11.1364 12.1258 11.0051 11.9946L11.8537 11.146L12.7022 10.2975C12.3833 9.97865 11.9509 9.79951 11.4999 9.79951V10.9995ZM11.8537 11.146L11.0051 11.9945L15.1513 16.1414L15.9999 15.2929L16.8485 14.4445L12.7023 10.2976L11.8537 11.146ZM15.9999 15.2929L16.8485 16.1414L20.9948 11.9945L20.1462 11.146L19.2976 10.2976L15.1513 14.4445L15.9999 15.2929ZM20.1462 11.146L20.9947 11.9946C20.8635 12.1258 20.6855 12.1995 20.4999 12.1995V10.9995V9.79951C20.049 9.79951 19.6165 9.97865 19.2976 10.2975L20.1462 11.146ZM20.4999 10.9995V12.1995C20.3143 12.1995 20.1364 12.1258 20.0051 11.9946L20.8537 11.146L21.7022 10.2975C21.3833 9.97865 20.9509 9.79951 20.4999 9.79951V10.9995ZM20.8537 11.146L20.0051 11.9946C19.8739 11.8633 19.8002 11.6854 19.8002 11.4998H21.0002H22.2002C22.2002 11.0488 22.0211 10.6164 21.7022 10.2975L20.8537 11.146ZM21.0002 11.4998H19.8002C19.8002 11.3142 19.8739 11.1362 20.0051 11.005L20.8537 11.8535L21.7022 12.7021C22.0211 12.3832 22.2002 11.9507 22.2002 11.4998H21.0002ZM20.8537 11.8535L20.0052 11.0049L15.8583 15.1512L16.7068 15.9998L17.5553 16.8484L21.7021 12.7021L20.8537 11.8535ZM16.7068 15.9998L15.8583 16.8484L20.0052 20.9946L20.8537 20.146L21.7021 19.2974L17.5553 15.1512L16.7068 15.9998Z" fill="#4E0002" mask="url(#path-2-inside-1_4856_13586)"/>
</svg>
