<svg width="18" height="18" viewBox="0 0 18 18" fill="none" xmlns="http://www.w3.org/2000/svg">
<mask id="path-1-inside-1_5011_43877" fill="white">
<path d="M14.4608 13.6648C14.513 13.7171 14.5545 13.7792 14.5828 13.8474C14.6111 13.9157 14.6256 13.9889 14.6256 14.0628C14.6256 14.1367 14.6111 14.2099 14.5828 14.2782C14.5545 14.3465 14.513 14.4085 14.4608 14.4608C14.4085 14.513 14.3465 14.5545 14.2782 14.5828C14.2099 14.6111 14.1367 14.6256 14.0628 14.6256C13.9889 14.6256 13.9157 14.6111 13.8474 14.5828C13.7792 14.5545 13.7171 14.513 13.6648 14.4608L9.00031 9.79555L4.33578 14.4608C4.23023 14.5663 4.08708 14.6256 3.93781 14.6256C3.78855 14.6256 3.64539 14.5663 3.53984 14.4608C3.4343 14.3552 3.375 14.2121 3.375 14.0628C3.375 13.9135 3.4343 13.7704 3.53984 13.6648L8.20508 9.00031L3.53984 4.33578C3.4343 4.23023 3.375 4.08708 3.375 3.93781C3.375 3.78855 3.4343 3.64539 3.53984 3.53984C3.64539 3.4343 3.78855 3.375 3.93781 3.375C4.08708 3.375 4.23023 3.4343 4.33578 3.53984L9.00031 8.20508L13.6648 3.53984C13.7704 3.4343 13.9135 3.375 14.0628 3.375C14.2121 3.375 14.3552 3.4343 14.4608 3.53984C14.5663 3.64539 14.6256 3.78855 14.6256 3.93781C14.6256 4.08708 14.5663 4.23023 14.4608 4.33578L9.79555 9.00031L14.4608 13.6648Z"/>
</mask>
<path d="M14.4608 13.6648C14.513 13.7171 14.5545 13.7792 14.5828 13.8474C14.6111 13.9157 14.6256 13.9889 14.6256 14.0628C14.6256 14.1367 14.6111 14.2099 14.5828 14.2782C14.5545 14.3465 14.513 14.4085 14.4608 14.4608C14.4085 14.513 14.3465 14.5545 14.2782 14.5828C14.2099 14.6111 14.1367 14.6256 14.0628 14.6256C13.9889 14.6256 13.9157 14.6111 13.8474 14.5828C13.7792 14.5545 13.7171 14.513 13.6648 14.4608L9.00031 9.79555L4.33578 14.4608C4.23023 14.5663 4.08708 14.6256 3.93781 14.6256C3.78855 14.6256 3.64539 14.5663 3.53984 14.4608C3.4343 14.3552 3.375 14.2121 3.375 14.0628C3.375 13.9135 3.4343 13.7704 3.53984 13.6648L8.20508 9.00031L3.53984 4.33578C3.4343 4.23023 3.375 4.08708 3.375 3.93781C3.375 3.78855 3.4343 3.64539 3.53984 3.53984C3.64539 3.4343 3.78855 3.375 3.93781 3.375C4.08708 3.375 4.23023 3.4343 4.33578 3.53984L9.00031 8.20508L13.6648 3.53984C13.7704 3.4343 13.9135 3.375 14.0628 3.375C14.2121 3.375 14.3552 3.4343 14.4608 3.53984C14.5663 3.64539 14.6256 3.78855 14.6256 3.93781C14.6256 4.08708 14.5663 4.23023 14.4608 4.33578L9.79555 9.00031L14.4608 13.6648Z" fill="#0F1E1F"/>
<path d="M14.4608 13.6648L15.3093 12.8163L15.3092 12.8163L14.4608 13.6648ZM14.0628 14.6256L14.0628 15.8256L14.0628 14.6256ZM13.6648 14.4608L12.8163 15.3092L12.8163 15.3093L13.6648 14.4608ZM9.00031 9.79555L9.84891 8.94708L9.00031 8.09836L8.15172 8.94708L9.00031 9.79555ZM4.33578 14.4608L5.18431 15.3093L5.18437 15.3092L4.33578 14.4608ZM3.53984 13.6648L2.69138 12.8163L2.69132 12.8163L3.53984 13.6648ZM8.20508 9.00031L9.05354 9.84891L9.90226 9.00031L9.05354 8.15172L8.20508 9.00031ZM3.53984 4.33578L2.69132 5.18431L2.69138 5.18437L3.53984 4.33578ZM3.93781 3.375V2.175V3.375ZM4.33578 3.53984L5.18437 2.69138L5.18431 2.69132L4.33578 3.53984ZM9.00031 8.20508L8.15172 9.05354L9.00031 9.90226L9.84891 9.05354L9.00031 8.20508ZM13.6648 3.53984L12.8163 2.69132L12.8163 2.69138L13.6648 3.53984ZM14.4608 4.33578L15.3092 5.18437L15.3093 5.18431L14.4608 4.33578ZM9.79555 9.00031L8.94708 8.15172L8.09836 9.00031L8.94708 9.84891L9.79555 9.00031ZM14.4608 13.6648L13.6123 14.5134C13.5531 14.4542 13.5061 14.384 13.4741 14.3067L14.5828 13.8474L15.6914 13.3882C15.6029 13.1743 15.473 12.98 15.3093 12.8163L14.4608 13.6648ZM14.5828 13.8474L13.4741 14.3067C13.4421 14.2294 13.4256 14.1465 13.4256 14.0628H14.6256H15.8256C15.8256 13.8313 15.78 13.6021 15.6914 13.3882L14.5828 13.8474ZM14.6256 14.0628H13.4256C13.4256 13.9791 13.4421 13.8963 13.4741 13.819L14.5828 14.2782L15.6914 14.7374C15.78 14.5235 15.8256 14.2943 15.8256 14.0628H14.6256ZM14.5828 14.2782L13.4741 13.819C13.5061 13.7417 13.5531 13.6714 13.6123 13.6123L14.4608 14.4608L15.3093 15.3093C15.473 15.1456 15.6029 14.9513 15.6914 14.7374L14.5828 14.2782ZM14.4608 14.4608L13.6123 13.6123C13.6714 13.5531 13.7417 13.5061 13.819 13.4741L14.2782 14.5828L14.7374 15.6914C14.9513 15.6029 15.1456 15.473 15.3093 15.3093L14.4608 14.4608ZM14.2782 14.5828L13.819 13.4741C13.8963 13.4421 13.9791 13.4256 14.0628 13.4256V14.6256L14.0628 15.8256C14.2943 15.8256 14.5235 15.78 14.7374 15.6914L14.2782 14.5828ZM14.0628 14.6256L14.0628 13.4256C14.1465 13.4256 14.2294 13.4421 14.3067 13.4741L13.8474 14.5828L13.3882 15.6914C13.6021 15.78 13.8313 15.8256 14.0628 15.8256V14.6256ZM13.8474 14.5828L14.3067 13.4741C14.384 13.5061 14.4542 13.5531 14.5134 13.6123L13.6648 14.4608L12.8163 15.3093C12.98 15.473 13.1743 15.6029 13.3882 15.6914L13.8474 14.5828ZM13.6648 14.4608L14.5134 13.6123L9.84891 8.94708L9.00031 9.79555L8.15172 10.644L12.8163 15.3092L13.6648 14.4608ZM9.00031 9.79555L8.15172 8.94708L3.48719 13.6123L4.33578 14.4608L5.18437 15.3092L9.84891 10.644L9.00031 9.79555ZM4.33578 14.4608L3.48725 13.6123C3.60675 13.4928 3.76882 13.4256 3.93781 13.4256V14.6256V15.8256C4.40534 15.8256 4.85372 15.6399 5.18431 15.3093L4.33578 14.4608ZM3.93781 14.6256V13.4256C4.10681 13.4256 4.26888 13.4928 4.38837 13.6123L3.53984 14.4608L2.69132 15.3093C3.02191 15.6399 3.47028 15.8256 3.93781 15.8256V14.6256ZM3.53984 14.4608L4.38837 13.6123C4.50787 13.7318 4.575 13.8938 4.575 14.0628H3.375L2.175 14.0628C2.175 14.5303 2.36072 14.9787 2.69132 15.3093L3.53984 14.4608ZM3.375 14.0628H4.575C4.575 14.2318 4.50787 14.3939 4.38837 14.5134L3.53984 13.6648L2.69132 12.8163C2.36072 13.1469 2.175 13.5953 2.175 14.0628L3.375 14.0628ZM3.53984 13.6648L4.38831 14.5134L9.05354 9.84891L8.20508 9.00031L7.35661 8.15172L2.69138 12.8163L3.53984 13.6648ZM8.20508 9.00031L9.05354 8.15172L4.38831 3.48719L3.53984 4.33578L2.69138 5.18437L7.35661 9.84891L8.20508 9.00031ZM3.53984 4.33578L4.38837 3.48725C4.50787 3.60675 4.575 3.76882 4.575 3.93781H3.375H2.175C2.175 4.40534 2.36072 4.85372 2.69132 5.18431L3.53984 4.33578ZM3.375 3.93781H4.575C4.575 4.10681 4.50787 4.26888 4.38837 4.38837L3.53984 3.53984L2.69132 2.69132C2.36072 3.02191 2.175 3.47029 2.175 3.93781H3.375ZM3.53984 3.53984L4.38837 4.38837C4.26888 4.50787 4.10681 4.575 3.93781 4.575V3.375V2.175C3.47029 2.175 3.02191 2.36072 2.69132 2.69132L3.53984 3.53984ZM3.93781 3.375V4.575C3.76882 4.575 3.60675 4.50787 3.48725 4.38837L4.33578 3.53984L5.18431 2.69132C4.85372 2.36072 4.40534 2.175 3.93781 2.175V3.375ZM4.33578 3.53984L3.48719 4.38831L8.15172 9.05354L9.00031 8.20508L9.84891 7.35661L5.18437 2.69138L4.33578 3.53984ZM9.00031 8.20508L9.84891 9.05354L14.5134 4.38831L13.6648 3.53984L12.8163 2.69138L8.15172 7.35661L9.00031 8.20508ZM13.6648 3.53984L14.5134 4.38837C14.3939 4.50787 14.2318 4.575 14.0628 4.575V3.375L14.0628 2.175C13.5953 2.175 13.1469 2.36072 12.8163 2.69132L13.6648 3.53984ZM14.0628 3.375V4.575C13.8938 4.575 13.7318 4.50787 13.6123 4.38837L14.4608 3.53984L15.3093 2.69132C14.9787 2.36072 14.5303 2.175 14.0628 2.175L14.0628 3.375ZM14.4608 3.53984L13.6123 4.38837C13.4928 4.26888 13.4256 4.10681 13.4256 3.93781H14.6256H15.8256C15.8256 3.47028 15.6399 3.02191 15.3093 2.69132L14.4608 3.53984ZM14.6256 3.93781H13.4256C13.4256 3.76882 13.4928 3.60675 13.6123 3.48725L14.4608 4.33578L15.3093 5.18431C15.6399 4.85372 15.8256 4.40534 15.8256 3.93781H14.6256ZM14.4608 4.33578L13.6123 3.48719L8.94708 8.15172L9.79555 9.00031L10.644 9.84891L15.3092 5.18437L14.4608 4.33578ZM9.79555 9.00031L8.94708 9.84891L13.6123 14.5134L14.4608 13.6648L15.3092 12.8163L10.644 8.15172L9.79555 9.00031Z" fill="#BA1A1A" mask="url(#path-1-inside-1_5011_43877)"/>
</svg>
