<svg width="18" height="18" viewBox="0 0 18 18" fill="none" xmlns="http://www.w3.org/2000/svg">
<path d="M6.1875 2.8125C5.29239 2.8125 4.43395 3.16808 3.80101 3.80101C3.16808 4.43395 2.8125 5.29239 2.8125 6.1875V11.8125C2.8125 12.7076 3.16808 13.566 3.80101 14.199C4.43395 14.8319 5.29239 15.1875 6.1875 15.1875H11.8125C12.7076 15.1875 13.566 14.8319 14.199 14.199C14.8319 13.566 15.1875 12.7076 15.1875 11.8125V6.1875C15.1875 5.29239 14.8319 4.43395 14.199 3.80101C13.566 3.16808 12.7076 2.8125 11.8125 2.8125H6.1875Z" stroke="#4A6365" stroke-width="1.1"/>
<path d="M9 8.57617V12.3262" stroke="#4A6365" stroke-width="1.1" stroke-linecap="round"/>
<path d="M9 6.98242C9.51777 6.98242 9.9375 6.56269 9.9375 6.04492C9.9375 5.52716 9.51777 5.10742 9 5.10742C8.48223 5.10742 8.0625 5.52716 8.0625 6.04492C8.0625 6.56269 8.48223 6.98242 9 6.98242Z" fill="#4A6365"/>
</svg>
