<svg width="20" height="20" viewBox="0 0 20 20" fill="none" xmlns="http://www.w3.org/2000/svg">
<g clip-path="url(#clip0_4856_13550)">
<path d="M6.90369 8L12.9535 8C13.0381 7.99993 13.1217 8.01884 13.1976 8.05469L13.2709 8.0957C13.3411 8.14261 13.3996 8.20454 13.4427 8.27637L13.4808 8.35156C13.5239 8.45559 13.535 8.57022 13.5131 8.68066C13.4966 8.76334 13.4622 8.84098 13.4125 8.9082L13.3568 8.97266L10.3314 11.998C10.2247 12.1047 10.08 12.1649 9.92908 12.165C9.81579 12.165 9.70556 12.1313 9.61267 12.0693L9.52576 11.998L6.50037 8.97266C6.44063 8.91291 6.39483 8.84061 6.36658 8.76172L6.34412 8.68066C6.32769 8.59795 6.32973 8.51279 6.34998 8.43164L6.37732 8.35156C6.42049 8.24748 6.49355 8.15825 6.58728 8.0957C6.65753 8.0489 6.73687 8.0181 6.8197 8.00586L6.90369 8Z" fill="#4A6365" stroke="#4A6365"/>
</g>
<defs>
<clipPath id="clip0_4856_13550">
<rect width="20" height="20" fill="white"/>
</clipPath>
</defs>
</svg>
