<svg width="32" height="32" viewBox="0 0 32 32" fill="none" xmlns="http://www.w3.org/2000/svg">
<path d="M9.8457 0.400391H22.1543C27.3709 0.400634 31.5994 4.62909 31.5996 9.8457V22.1543C31.5994 27.3709 27.3709 31.5994 22.1543 31.5996H9.8457C4.62909 31.5994 0.400634 27.3709 0.400391 22.1543V9.8457L0.412109 9.36035C0.656804 4.53005 4.53005 0.656804 9.36035 0.412109L9.8457 0.400391Z" fill="white"/>
<path d="M9.8457 0.400391H22.1543C27.3709 0.400634 31.5994 4.62909 31.5996 9.8457V22.1543C31.5994 27.3709 27.3709 31.5994 22.1543 31.5996H9.8457C4.62909 31.5994 0.400634 27.3709 0.400391 22.1543V9.8457L0.412109 9.36035C0.656804 4.53005 4.53005 0.656804 9.36035 0.412109L9.8457 0.400391Z" stroke="#4A6365" stroke-width="0.8"/>
<path d="M17.6267 11.8534L10.7987 18.68C10.5957 18.883 10.4636 19.146 10.422 19.43L10.0533 21.946L12.57 21.5774C12.8541 21.5356 13.1172 21.4033 13.32 21.2L20.1467 14.3734M17.6267 11.8534L19.1127 10.3667C19.2117 10.2676 19.3293 10.189 19.4588 10.1354C19.5882 10.0818 19.7269 10.0542 19.867 10.0542C20.0071 10.0542 20.1458 10.0818 20.2753 10.1354C20.4047 10.189 20.5223 10.2676 20.6213 10.3667L21.6333 11.3787C21.7324 11.4778 21.811 11.5954 21.8646 11.7248C21.9183 11.8542 21.9459 11.9929 21.9459 12.133C21.9459 12.2731 21.9183 12.4119 21.8646 12.5413C21.811 12.6707 21.7324 12.7883 21.6333 12.8874L20.1467 14.3734M17.6267 11.8534L20.1467 14.3734" stroke="#4A6365" stroke-width="1.2" stroke-linecap="round" stroke-linejoin="round"/>
</svg>
