<svg width="40" height="40" viewBox="0 0 40 40" fill="none" xmlns="http://www.w3.org/2000/svg">
<path d="M18.3334 20.833C18.6913 21.3114 19.1478 21.7073 19.6722 21.9938C20.1965 22.2802 20.7763 22.4506 21.3722 22.4933C21.9682 22.5359 22.5664 22.45 23.1262 22.2411C23.686 22.0323 24.1943 21.7055 24.6167 21.283L27.1167 18.783C27.8757 17.9971 28.2957 16.9446 28.2862 15.8521C28.2767 14.7597 27.8385 13.7146 27.066 12.9421C26.2934 12.1695 25.2484 11.7313 24.1559 11.7218C23.0634 11.7123 22.0109 12.1323 21.225 12.8913L19.7917 14.3163" stroke="#004F53" stroke-width="1.4" stroke-linecap="round" stroke-linejoin="round"/>
<path d="M21.6667 19.166C21.3088 18.6876 20.8522 18.2917 20.3279 18.0053C19.8036 17.7188 19.2238 17.5484 18.6278 17.5058C18.0319 17.4631 17.4337 17.5491 16.8739 17.7579C16.3141 17.9667 15.8058 18.2935 15.3834 18.716L12.8834 21.216C12.1244 22.0019 11.7044 23.0544 11.7139 24.1469C11.7234 25.2394 12.1616 26.2844 12.9341 27.057C13.7067 27.8295 14.7517 28.2677 15.8442 28.2772C16.9367 28.2867 17.9892 27.8667 18.775 27.1077L20.2 25.6827" stroke="#004F53" stroke-width="1.4" stroke-linecap="round" stroke-linejoin="round"/>
</svg>
