<svg width="20" height="20" viewBox="0 0 20 20" fill="none" xmlns="http://www.w3.org/2000/svg">
<path d="M13.4643 17.0977H13.9585C14.511 17.0977 15.0409 16.8782 15.4316 16.4875C15.8223 16.0968 16.0418 15.5669 16.0418 15.0143V4.79183C16.0418 4.2393 15.8223 3.70939 15.4316 3.31869C15.0409 2.92799 14.511 2.7085 13.9585 2.7085H6.04183C5.5835 2.7085 5.1585 2.85683 4.81433 3.1085M4.81433 3.1085L10.6593 5.85933C10.8736 5.96041 11.0547 6.1203 11.1816 6.32036C11.3085 6.52042 11.3759 6.75242 11.376 6.98933V16.8718C11.3761 17.0824 11.3229 17.2895 11.2216 17.474C11.1202 17.6585 10.9739 17.8145 10.7962 17.9273C10.6185 18.0402 10.4151 18.1064 10.205 18.1197C9.99493 18.133 9.78487 18.093 9.59433 18.0035L4.681 15.691C4.46661 15.5899 4.2854 15.4298 4.15851 15.2296C4.03161 15.0294 3.96427 14.7972 3.96433 14.5602M4.81433 3.1085C4.54929 3.30177 4.33364 3.55572 4.18492 3.84809C4.0362 4.14046 3.95862 4.46381 3.9585 4.79183V14.5602" stroke="#4A6365" stroke-linecap="round" stroke-linejoin="round"/>
<path d="M8.54167 11.6668C9.11696 11.6668 9.58333 11.2005 9.58333 10.6252C9.58333 10.0499 9.11696 9.5835 8.54167 9.5835C7.96637 9.5835 7.5 10.0499 7.5 10.6252C7.5 11.2005 7.96637 11.6668 8.54167 11.6668Z" fill="#4A6365"/>
</svg>
