<svg width="32" height="32" viewBox="0 0 32 32" fill="none" xmlns="http://www.w3.org/2000/svg">
<path d="M19.2541 7.70674L5.59809 21.3601C5.19206 21.7659 4.92785 22.292 4.84476 22.8601L4.10742 27.8921L9.14076 27.1547C9.70898 27.0713 10.2351 26.8066 10.6408 26.4001L24.2941 12.7467M19.2541 7.70674L22.2261 4.73341C22.4242 4.53526 22.6594 4.37808 22.9183 4.27084C23.1771 4.1636 23.4546 4.1084 23.7348 4.1084C24.015 4.1084 24.2924 4.1636 24.5513 4.27084C24.8101 4.37808 25.0453 4.53526 25.2434 4.73341L27.2674 6.75741C27.4656 6.95551 27.6228 7.19071 27.73 7.44957C27.8372 7.70843 27.8924 7.98588 27.8924 8.26608C27.8924 8.54627 27.8372 8.82372 27.73 9.08258C27.6228 9.34144 27.4656 9.57664 27.2674 9.77474L24.2941 12.7467M19.2541 7.70674L24.2941 12.7467" stroke="#6F7979" stroke-width="2.4" stroke-linecap="round" stroke-linejoin="round"/>
</svg>
