<svg width="20" height="20" viewBox="0 0 20 20" fill="none" xmlns="http://www.w3.org/2000/svg">
<path d="M9.99991 11.5215C10.7749 11.5215 11.5181 11.2137 12.0661 10.6657C12.6141 10.1177 12.922 9.37442 12.922 8.59944C12.922 7.82445 12.6141 7.08121 12.0661 6.53321C11.5181 5.98521 10.7749 5.67735 9.99991 5.67735C9.22493 5.67735 8.48168 5.98521 7.93369 6.53321C7.38569 7.08121 7.07783 7.82445 7.07783 8.59944C7.07783 9.37442 7.38569 10.1177 7.93369 10.6657C8.48168 11.2137 9.22493 11.5215 9.99991 11.5215ZM9.99991 11.5215C11.2183 11.5216 12.3947 11.9665 13.3081 12.7728C14.2216 13.579 14.8093 14.691 14.9607 15.8999C13.5734 17.071 11.8155 17.7118 9.99991 17.7082C8.18434 17.7118 6.42641 17.071 5.03908 15.8999M9.99991 11.5215C8.78156 11.5216 7.60516 11.9665 6.69169 12.7728C5.77823 13.579 5.19056 14.691 5.03908 15.8999M5.03908 15.8999C3.82893 14.8822 2.96101 13.5169 2.55302 11.9893C2.14503 10.4617 2.21669 8.84551 2.7583 7.35998C3.29991 5.87444 4.28525 4.5914 5.58073 3.68482C6.87621 2.77825 8.41914 2.29199 10.0003 2.29199C11.5815 2.29199 13.1244 2.77825 14.4199 3.68482C15.7154 4.5914 16.7007 5.87444 17.2424 7.35998C17.784 8.84551 17.8556 10.4617 17.4476 11.9893C17.0396 13.5169 16.1717 14.8822 14.9616 15.8999" stroke="#4A6365" stroke-linecap="round" stroke-linejoin="round"/>
</svg>
