<svg width="18" height="18" viewBox="0 0 18 18" fill="none" xmlns="http://www.w3.org/2000/svg">
<path d="M14.4375 1.3125V5.8125M12.1875 3.5625H16.6875M7.827 10.173C8.60415 10.173 9.34947 9.86428 9.899 9.31475C10.4485 8.76522 10.7572 8.0199 10.7572 7.24275C10.7572 6.4656 10.4485 5.72028 9.899 5.17075C9.34947 4.62122 8.60415 4.3125 7.827 4.3125C7.04985 4.3125 6.30453 4.62122 5.755 5.17075C5.20547 5.72028 4.89675 6.4656 4.89675 7.24275C4.89675 8.0199 5.20547 8.76522 5.755 9.31475C6.30453 9.86428 7.04985 10.173 7.827 10.173ZM7.827 10.173C9.1568 10.1732 10.4321 10.7016 11.3723 11.642C12.3125 12.5824 12.8407 13.8577 12.8407 15.1875M7.827 10.173C6.49707 10.173 5.22161 10.7013 4.28121 11.6417C3.34081 12.5821 2.8125 13.8576 2.8125 15.1875" stroke="#4A6365" stroke-width="1.2" stroke-linecap="round" stroke-linejoin="round"/>
</svg>
