<svg width="24" height="24" viewBox="0 0 24 24" fill="none" xmlns="http://www.w3.org/2000/svg">
<path d="M22.0431 11.502C22.1751 11.6339 22.2496 11.8133 22.2496 11.9999C22.2496 12.1863 22.1755 12.3652 22.0438 12.4971C21.9449 12.596 21.8192 12.6627 21.684 12.6897L21.5459 12.7035L12.7499 12.7021H12.703V12.7491L12.7037 21.5458C12.7036 21.6382 12.6851 21.7298 12.6498 21.8151C12.6145 21.9003 12.563 21.9778 12.4979 22.043C12.4326 22.1083 12.3546 22.1602 12.2693 22.1956C12.184 22.231 12.0924 22.2495 12 22.2495C11.9076 22.2495 11.816 22.231 11.7307 22.1956C11.6454 22.1602 11.5674 22.1083 11.5021 22.043C11.437 21.9778 11.3855 21.9003 11.3502 21.8151C11.3325 21.7723 11.3191 21.7278 11.3102 21.6825L11.2963 21.5458L11.297 12.7491V12.7021H11.2501L2.45406 12.7035C2.26747 12.7035 2.08812 12.629 1.95618 12.4971C1.82445 12.3652 1.75043 12.1863 1.7504 11.9999C1.7504 11.8133 1.82493 11.6339 1.95687 11.502C2.05573 11.4033 2.18094 11.3371 2.31595 11.31L2.45406 11.2962L11.2508 11.2969H11.2977V11.25L11.2963 2.45393C11.2963 2.26734 11.3709 2.08799 11.5028 1.95605C11.6347 1.8243 11.8135 1.75027 12 1.75027C12.1399 1.75027 12.2755 1.79192 12.3902 1.86836L12.4972 1.95605C12.5961 2.05498 12.6628 2.18063 12.6898 2.31582L12.7037 2.45393L12.7023 11.25V11.2969H12.7492L21.5459 11.2962C21.7324 11.2962 21.9112 11.3702 22.0431 11.502Z" fill="white" stroke="white" stroke-width="0.09375"/>
</svg>
