<svg width="19" height="18" viewBox="0 0 19 18" fill="none" xmlns="http://www.w3.org/2000/svg">
<mask id="path-1-inside-1_5314_27956" fill="white">
<path d="M10.0628 16.1598C10.0628 16.2337 10.0483 16.3069 10.02 16.3752C9.99169 16.4434 9.95023 16.5055 9.89797 16.5577C9.84571 16.61 9.78366 16.6515 9.71538 16.6797C9.6471 16.708 9.57391 16.7226 9.5 16.7226C9.42609 16.7226 9.3529 16.708 9.28462 16.6797C9.21634 16.6515 9.15429 16.61 9.10203 16.5577C9.04977 16.5055 9.00831 16.4434 8.98003 16.3752C8.95174 16.3069 8.93719 16.2337 8.93719 16.1598L8.93768 9.56263L2.34054 9.56313C2.19128 9.56313 2.04812 9.50383 1.94257 9.39828C1.83703 9.29274 1.77773 9.14958 1.77773 9.00032C1.77773 8.85105 1.83703 8.7079 1.94258 8.60235C2.04812 8.4968 2.19128 8.4375 2.34054 8.4375L8.93768 8.438L8.93719 1.84086C8.93719 1.69159 8.99648 1.54844 9.10203 1.44289C9.20758 1.33734 9.35073 1.27805 9.5 1.27805C9.64927 1.27805 9.79242 1.33734 9.89797 1.44289C10.0035 1.54844 10.0628 1.69159 10.0628 1.84086L10.0623 8.438L16.6595 8.4375C16.8087 8.4375 16.9519 8.4968 17.0574 8.60235C17.163 8.7079 17.2223 8.85105 17.2223 9.00032C17.2223 9.14958 17.163 9.29274 17.0574 9.39828C16.9519 9.50383 16.8087 9.56313 16.6595 9.56313L10.0623 9.56263L10.0628 16.1598Z"/>
</mask>
<path d="M10.0628 16.1598H11.2628L11.2628 16.1597L10.0628 16.1598ZM9.10203 16.5577L8.2535 17.4063L9.10203 16.5577ZM8.93719 16.1598L7.73719 16.1597L7.73719 16.1598H8.93719ZM8.93768 9.56263L10.1377 9.56272L10.1378 8.36254L8.93759 8.36263L8.93768 9.56263ZM2.34054 9.56313L2.34054 10.7631L2.34063 10.7631L2.34054 9.56313ZM2.34054 8.4375L2.34063 7.2375L2.34054 7.2375L2.34054 8.4375ZM8.93768 8.438L8.93759 9.638L10.1378 9.63809L10.1377 8.43791L8.93768 8.438ZM8.93719 1.84086L7.73719 1.84086L7.73719 1.84095L8.93719 1.84086ZM9.89797 1.44289L10.7465 0.594362L9.89797 1.44289ZM10.0628 1.84086L11.2628 1.84095L11.2628 1.84086L10.0628 1.84086ZM10.0623 8.438L8.86232 8.43791L8.86223 9.63809L10.0624 9.638L10.0623 8.438ZM16.6595 8.4375L16.6595 7.2375L16.6594 7.2375L16.6595 8.4375ZM16.6595 9.56313L16.6594 10.7631L16.6595 10.7631L16.6595 9.56313ZM10.0623 9.56263L10.0624 8.36263L8.86222 8.36254L8.86232 9.56272L10.0623 9.56263ZM10.0628 16.1598H8.86281C8.86281 16.0761 8.8793 15.9932 8.91132 15.9159L10.02 16.3752L11.1286 16.8344C11.2172 16.6205 11.2628 16.3913 11.2628 16.1598H10.0628ZM10.02 16.3752L8.91132 15.9159C8.94333 15.8386 8.99027 15.7684 9.04944 15.7092L9.89797 16.5577L10.7465 17.4063C10.9102 17.2426 11.04 17.0482 11.1286 16.8344L10.02 16.3752ZM9.89797 16.5577L9.04944 15.7092C9.10862 15.65 9.17886 15.6031 9.25616 15.5711L9.71538 16.6797L10.1746 17.7884C10.3885 17.6998 10.5828 17.57 10.7465 17.4063L9.89797 16.5577ZM9.71538 16.6797L9.25616 15.5711C9.33346 15.5391 9.41632 15.5226 9.5 15.5226V16.7226V17.9226C9.7315 17.9226 9.96073 17.877 10.1746 17.7884L9.71538 16.6797ZM9.5 16.7226V15.5226C9.58368 15.5226 9.66654 15.5391 9.74384 15.5711L9.28462 16.6797L8.8254 17.7884C9.03927 17.877 9.2685 17.9226 9.5 17.9226V16.7226ZM9.28462 16.6797L9.74384 15.5711C9.82114 15.6031 9.89138 15.65 9.95056 15.7092L9.10203 16.5577L8.2535 17.4063C8.4172 17.57 8.61153 17.6998 8.8254 17.7884L9.28462 16.6797ZM9.10203 16.5577L9.95056 15.7092C10.0097 15.7684 10.0567 15.8386 10.0887 15.9159L8.98003 16.3752L7.87137 16.8344C7.95996 17.0482 8.0898 17.2426 8.2535 17.4063L9.10203 16.5577ZM8.98003 16.3752L10.0887 15.9159C10.1207 15.9932 10.1372 16.0761 10.1372 16.1598H8.93719H7.73719C7.73719 16.3913 7.78279 16.6205 7.87137 16.8344L8.98003 16.3752ZM8.93719 16.1598L10.1372 16.1599L10.1377 9.56272L8.93768 9.56263L7.73768 9.56254L7.73719 16.1597L8.93719 16.1598ZM8.93768 9.56263L8.93759 8.36263L2.34045 8.36313L2.34054 9.56313L2.34063 10.7631L8.93778 10.7626L8.93768 9.56263ZM2.34054 9.56313L2.34054 8.36313C2.50954 8.36313 2.67161 8.43026 2.7911 8.54976L1.94257 9.39828L1.09405 10.2468C1.42464 10.5774 1.87302 10.7631 2.34054 10.7631L2.34054 9.56313ZM1.94257 9.39828L2.7911 8.54976C2.9106 8.66925 2.97773 8.83132 2.97773 9.00032L1.77773 9.00032L0.57773 9.00032C0.577731 9.46784 0.763454 9.91622 1.09405 10.2468L1.94257 9.39828ZM1.77773 9.00032L2.97773 9.00032C2.97773 9.16931 2.9106 9.33138 2.7911 9.45087L1.94258 8.60235L1.09405 7.75382C0.763456 8.08441 0.57773 8.53279 0.57773 9.00032L1.77773 9.00032ZM1.94258 8.60235L2.7911 9.45087C2.67161 9.57037 2.50954 9.6375 2.34054 9.6375L2.34054 8.4375L2.34054 7.2375C1.87302 7.2375 1.42464 7.42323 1.09405 7.75382L1.94258 8.60235ZM2.34054 8.4375L2.34045 9.6375L8.93759 9.638L8.93768 8.438L8.93778 7.238L2.34063 7.2375L2.34054 8.4375ZM8.93768 8.438L10.1377 8.43791L10.1372 1.84077L8.93719 1.84086L7.73719 1.84095L7.73768 8.43809L8.93768 8.438ZM8.93719 1.84086L10.1372 1.84086C10.1372 2.00985 10.0701 2.17192 9.95056 2.29142L9.10203 1.44289L8.2535 0.594362C7.92291 0.924954 7.73719 1.37333 7.73719 1.84086L8.93719 1.84086ZM9.10203 1.44289L9.95056 2.29142C9.83106 2.41091 9.66899 2.47805 9.5 2.47805V1.27805V0.0780465C9.03247 0.0780464 8.58409 0.263771 8.2535 0.594362L9.10203 1.44289ZM9.5 1.27805V2.47805C9.33101 2.47805 9.16894 2.41091 9.04944 2.29142L9.89797 1.44289L10.7465 0.594362C10.4159 0.263771 9.96753 0.0780464 9.5 0.0780465V1.27805ZM9.89797 1.44289L9.04944 2.29142C8.92994 2.17192 8.86281 2.00985 8.86281 1.84086L10.0628 1.84086L11.2628 1.84086C11.2628 1.37333 11.0771 0.924954 10.7465 0.594362L9.89797 1.44289ZM10.0628 1.84086L8.86281 1.84077L8.86232 8.43791L10.0623 8.438L11.2623 8.43809L11.2628 1.84095L10.0628 1.84086ZM10.0623 8.438L10.0624 9.638L16.6595 9.6375L16.6595 8.4375L16.6594 7.2375L10.0622 7.238L10.0623 8.438ZM16.6595 8.4375L16.6595 9.6375C16.4905 9.6375 16.3284 9.57037 16.2089 9.45087L17.0574 8.60235L17.906 7.75382C17.5754 7.42323 17.127 7.2375 16.6595 7.2375L16.6595 8.4375ZM17.0574 8.60235L16.2089 9.45087C16.0894 9.33138 16.0223 9.16931 16.0223 9.00032L17.2223 9.00032L18.4223 9.00032C18.4223 8.53279 18.2365 8.08441 17.906 7.75382L17.0574 8.60235ZM17.2223 9.00032L16.0223 9.00032C16.0223 8.83132 16.0894 8.66925 16.2089 8.54976L17.0574 9.39828L17.906 10.2468C18.2365 9.91622 18.4223 9.46784 18.4223 9.00032L17.2223 9.00032ZM17.0574 9.39828L16.2089 8.54976C16.3284 8.43026 16.4905 8.36313 16.6595 8.36313L16.6595 9.56313L16.6595 10.7631C17.127 10.7631 17.5754 10.5774 17.906 10.2468L17.0574 9.39828ZM16.6595 9.56313L16.6595 8.36313L10.0624 8.36263L10.0623 9.56263L10.0622 10.7626L16.6594 10.7631L16.6595 9.56313ZM10.0623 9.56263L8.86232 9.56272L8.86281 16.1599L10.0628 16.1598L11.2628 16.1597L11.2623 9.56254L10.0623 9.56263Z" fill="#00696E" mask="url(#path-1-inside-1_5314_27956)"/>
</svg>
