<svg width="15" height="15" viewBox="0 0 15 15" fill="none" xmlns="http://www.w3.org/2000/svg">
<path d="M10.6647 10.6647C11.1564 10.173 11.5465 9.58925 11.8126 8.94679C12.0787 8.30433 12.2157 7.61574 12.2157 6.92035C12.2157 6.22495 12.0787 5.53637 11.8126 4.8939C11.5465 4.25144 11.1564 3.66769 10.6647 3.17597C10.173 2.68425 9.58925 2.2942 8.94679 2.02808C8.30433 1.76197 7.61574 1.625 6.92035 1.625C6.22495 1.625 5.53637 1.76197 4.8939 2.02808C4.25144 2.2942 3.66769 2.68425 3.17597 3.17597C2.1829 4.16904 1.625 5.51593 1.625 6.92035C1.625 8.32476 2.1829 9.67165 3.17597 10.6647C4.16904 11.6578 5.51593 12.2157 6.92035 12.2157C8.32476 12.2157 9.67165 11.6578 10.6647 10.6647ZM10.6647 10.6647L14 14" stroke="#4A6365" stroke-width="1.5" stroke-linecap="round" stroke-linejoin="round"/>
</svg>
