<svg width="40" height="40" viewBox="0 0 40 40" fill="none" xmlns="http://www.w3.org/2000/svg">
<path d="M16.852 22.64L17.332 21.36H22.292L22.772 22.64H16.852ZM19.78 17.328L17.892 21.776L17.764 22.064L16.1 26H14.58L19.78 14.24L24.98 26H23.46L21.828 22.16L21.7 21.84L19.78 17.328Z" fill="#1B1B1B"/>
<path d="M16.852 22.64L17.332 21.36H22.292L22.772 22.64H16.852ZM19.78 17.328L17.892 21.776L17.764 22.064L16.1 26H14.58L19.78 14.24L24.98 26H23.46L21.828 22.16L21.7 21.84L19.78 17.328Z" fill="#1B1B1B" fill-opacity="0.2"/>
<path d="M16.852 22.64L17.332 21.36H22.292L22.772 22.64H16.852ZM19.78 17.328L17.892 21.776L17.764 22.064L16.1 26H14.58L19.78 14.24L24.98 26H23.46L21.828 22.16L21.7 21.84L19.78 17.328Z" fill="#1B1B1B" fill-opacity="0.2"/>
<path d="M16.852 22.64L17.332 21.36H22.292L22.772 22.64H16.852ZM19.78 17.328L17.892 21.776L17.764 22.064L16.1 26H14.58L19.78 14.24L24.98 26H23.46L21.828 22.16L21.7 21.84L19.78 17.328Z" fill="#1B1B1B" fill-opacity="0.2"/>
<path d="M16.852 22.64L17.332 21.36H22.292L22.772 22.64H16.852ZM19.78 17.328L17.892 21.776L17.764 22.064L16.1 26H14.58L19.78 14.24L24.98 26H23.46L21.828 22.16L21.7 21.84L19.78 17.328Z" fill="#1B1B1B" fill-opacity="0.2"/>
</svg>
