<svg width="40" height="40" viewBox="0 0 40 40" fill="none" xmlns="http://www.w3.org/2000/svg">
<path d="M19.848 21.504L20.04 20.32H23.448L23.24 21.504H19.848ZM23.432 14.8H24.824L22.888 26H21.56L23.432 14.8ZM19 14.8L18.472 17.712C18.3973 18.16 18.4027 18.5813 18.488 18.976C18.5733 19.3707 18.744 19.696 19 19.952C19.2667 20.1973 19.6133 20.32 20.04 20.32L19.848 21.504C19.176 21.504 18.6267 21.328 18.2 20.976C17.784 20.624 17.4907 20.16 17.32 19.584C17.16 18.9973 17.1227 18.3733 17.208 17.712L17.704 14.8H19Z" fill="#004B4F"/>
<path d="M15 28H24.552V28.8H15V28Z" fill="#004B4F"/>
</svg>
