<svg width="18" height="18" viewBox="0 0 18 18" fill="none" xmlns="http://www.w3.org/2000/svg">
<path d="M3.5625 10.6873L8.205 6.04483C8.41594 5.83416 8.70187 5.71582 9 5.71582C9.29813 5.71582 9.58406 5.83416 9.795 6.04483L14.4375 10.6873" stroke="#1B1B1B" stroke-width="1.5" stroke-linecap="round" stroke-linejoin="round"/>
<path d="M3.5625 10.6873L8.205 6.04483C8.41594 5.83416 8.70187 5.71582 9 5.71582C9.29813 5.71582 9.58406 5.83416 9.795 6.04483L14.4375 10.6873" stroke="#1B1B1B" stroke-opacity="0.2" stroke-width="1.5" stroke-linecap="round" stroke-linejoin="round"/>
<path d="M3.5625 10.6873L8.205 6.04483C8.41594 5.83416 8.70187 5.71582 9 5.71582C9.29813 5.71582 9.58406 5.83416 9.795 6.04483L14.4375 10.6873" stroke="#1B1B1B" stroke-opacity="0.2" stroke-width="1.5" stroke-linecap="round" stroke-linejoin="round"/>
<path d="M3.5625 10.6873L8.205 6.04483C8.41594 5.83416 8.70187 5.71582 9 5.71582C9.29813 5.71582 9.58406 5.83416 9.795 6.04483L14.4375 10.6873" stroke="#1B1B1B" stroke-opacity="0.2" stroke-width="1.5" stroke-linecap="round" stroke-linejoin="round"/>
<path d="M3.5625 10.6873L8.205 6.04483C8.41594 5.83416 8.70187 5.71582 9 5.71582C9.29813 5.71582 9.58406 5.83416 9.795 6.04483L14.4375 10.6873" stroke="#1B1B1B" stroke-opacity="0.2" stroke-width="1.5" stroke-linecap="round" stroke-linejoin="round"/>
</svg>
