<svg width="20" height="20" viewBox="0 0 20 20" fill="none" xmlns="http://www.w3.org/2000/svg">
<path fill-rule="evenodd" clip-rule="evenodd" d="M9.99984 1.66699C5.39734 1.66699 1.6665 5.39783 1.6665 10.0003C1.6665 11.5753 2.104 13.0503 2.86484 14.307L2.1215 16.8337C2.07882 16.9787 2.07602 17.1326 2.11337 17.2791C2.15073 17.4257 2.22688 17.5594 2.3338 17.6664C2.44073 17.7733 2.57449 17.8494 2.72102 17.8868C2.86755 17.9241 3.02143 17.9213 3.1665 17.8787L5.69317 17.1353C6.99212 17.9211 8.4817 18.3356 9.99984 18.3337C14.6023 18.3337 18.3332 14.6028 18.3332 10.0003C18.3332 5.39783 14.6023 1.66699 9.99984 1.66699ZM8.11484 11.8862C9.80067 13.5712 11.4098 13.7937 11.9782 13.8145C12.8423 13.8462 13.684 13.1862 14.0115 12.4203C14.0525 12.325 14.0673 12.2204 14.0544 12.1174C14.0415 12.0145 14.0014 11.9168 13.9382 11.8345C13.4815 11.2512 12.864 10.832 12.2607 10.4153C12.1348 10.328 11.9799 10.293 11.8287 10.3175C11.6775 10.3421 11.5416 10.4243 11.4498 10.547L10.9498 11.3095C10.9234 11.3503 10.8825 11.3796 10.8353 11.3913C10.7881 11.4031 10.7382 11.3965 10.6957 11.3728C10.3565 11.1787 9.86234 10.8487 9.50734 10.4937C9.15234 10.1387 8.84234 9.66699 8.66817 9.34949C8.6471 9.30904 8.64115 9.2624 8.65138 9.21795C8.66162 9.1735 8.68737 9.13416 8.724 9.10699L9.494 8.53532C9.60421 8.43999 9.67536 8.30733 9.69381 8.16278C9.71226 8.01823 9.67672 7.87196 9.594 7.75199C9.22067 7.20533 8.78567 6.51032 8.15484 6.04949C8.07325 5.99087 7.97791 5.95432 7.87805 5.94337C7.77818 5.93242 7.67719 5.94745 7.58484 5.98699C6.81817 6.31533 6.15484 7.15699 6.1865 8.02282C6.20734 8.59116 6.42984 10.2003 8.11484 11.8862Z" fill="#4A6365"/>
</svg>
